<?xml version="1.0" encoding="UTF-8" standalone="no"?>
<!-- Created with Inkscape (http://www.inkscape.org/) -->

<svg
   width="30.085033mm"
   height="11.619408mm"
   viewBox="0 0 30.085033 11.619408"
   version="1.1"
   id="svg1"
   xml:space="preserve"
   inkscape:version="1.3.2 (091e20e, 2023-11-25, custom)"
   sodipodi:docname="warp9-logo.svg"
   xmlns:inkscape="http://www.inkscape.org/namespaces/inkscape"
   xmlns:sodipodi="http://sodipodi.sourceforge.net/DTD/sodipodi-0.dtd"
   xmlns="http://www.w3.org/2000/svg"
   xmlns:svg="http://www.w3.org/2000/svg"><sodipodi:namedview
     id="namedview1"
     pagecolor="#ffffff"
     bordercolor="#000000"
     borderopacity="0.25"
     inkscape:showpageshadow="2"
     inkscape:pageopacity="0.0"
     inkscape:pagecheckerboard="0"
     inkscape:deskcolor="#d1d1d1"
     inkscape:document-units="mm"
     inkscape:zoom="1.5875"
     inkscape:cx="145.82677"
     inkscape:cy="25.511811"
     inkscape:window-width="1920"
     inkscape:window-height="1129"
     inkscape:window-x="-8"
     inkscape:window-y="-8"
     inkscape:window-maximized="1"
     inkscape:current-layer="layer1" /><defs
     id="defs1" /><g
     inkscape:label="Layer 1"
     inkscape:groupmode="layer"
     id="layer1"
     transform="translate(-25.072002,-57.327)"><g
       id="g8"><g
         id="path1"
         transform="translate(-8.36835,15.333333)"
         style="fill:#000000"><path
           style="color:#000000;-inkscape-stroke:none"
           d="m 39.25,53.465624 a 5.6666665,5.6666665 0 0 1 -4.907477,-2.833333 5.6666665,5.6666665 0 0 1 0,-5.666666 A 5.6666665,5.6666665 0 0 1 39.25,42.132291"
           id="path3" /><path
           id="path4"
           style="color:#000000;-inkscape-stroke:none"
           d="m 56.226411,41.993917 c -5.65364,0.002 -11.307082,0.0042 -16.960722,0.0062 -3.164635,-0.08957 -6.00245,2.834746 -5.816699,5.997567 0.0755,2.682181 2.231022,5.209532 4.931998,5.515942 1.105006,0.156988 2.469732,0.08494 3.676779,0.06976 4.717988,0.02647 9.436902,0.0024 14.155208,0.0083 0.0046,-3.865882 0.0089,-7.731861 0.01344,-11.597742 z m -2.757971,5.692159 c 0.206239,0 0.375578,0.03867 0.507979,0.116272 0.132401,0.0776 0.234909,0.189833 0.307475,0.336414 0.07257,0.144857 0.114633,0.297476 0.12609,0.457853 0.01145,0.160378 0.01705,0.470772 0.01705,0.931209 v 0.581877 c 0,0.498376 -0.0053,0.831973 -0.0155,1.000972 -0.01019,0.167276 -0.0544,0.32591 -0.133325,0.47594 -0.07766,0.150031 -0.183619,0.26312 -0.317293,0.338998 -0.133674,0.07415 -0.288368,0.111104 -0.464054,0.111104 -0.217698,0 -0.395569,-0.04726 -0.534335,-0.14211 -0.137493,-0.09485 -0.237064,-0.228561 -0.298173,-0.401009 -0.05983,-0.172449 -0.08992,-0.389518 -0.08992,-0.65164 h 0.771529 c 0,0.194866 0.0018,0.317752 0.0057,0.369486 0.0039,0.05001 0.01931,0.09263 0.04599,0.127124 0.02801,0.03449 0.06556,0.05168 0.112654,0.05168 0.03947,0 0.07221,-0.01633 0.09767,-0.04909 0.02546,-0.03277 0.0393,-0.07539 0.04186,-0.127124 0.0039,-0.05174 0.0057,-0.155719 0.0057,-0.312642 v -0.66766 c -0.03819,0.112092 -0.0957,0.196823 -0.172082,0.253732 -0.07639,0.05518 -0.170916,0.08268 -0.284221,0.08268 -0.141312,0 -0.265925,-0.05156 -0.374137,-0.155029 -0.108213,-0.10347 -0.176908,-0.227731 -0.206189,-0.372588 -0.02928,-0.144857 -0.04393,-0.340442 -0.04393,-0.587044 v -0.33383 c 0,-0.293163 0.0083,-0.511607 0.02481,-0.65474 0.01782,-0.143132 0.06203,-0.274611 0.133325,-0.395325 0.07129,-0.122438 0.170071,-0.217482 0.296106,-0.284737 0.126036,-0.06726 0.272476,-0.100769 0.43925,-0.100769 z m -10.923365,0.0801 h 0.781348 l 0.08165,1.461409 0.08423,1.409733 c 0.02928,-0.729458 0.103295,-1.68642 0.221692,-2.871142 h 0.836125 c 0.01145,0.122438 0.04074,0.582873 0.08785,1.381311 l 0.08785,1.5906 c 0.04456,-1.012273 0.119368,-2.00275 0.223759,-2.971911 h 0.780831 l -0.357085,4.187858 h -1.004589 c -0.09166,-0.643234 -0.172343,-1.374533 -0.242363,-2.193665 -0.03183,0.350071 -0.106118,1.081371 -0.223242,2.193665 h -0.998906 z m 3.533118,0 h 1.16272 l 0.460437,4.187858 h -0.823206 l -0.04031,-0.752926 H 46.54948 l -0.04754,0.752926 h -0.832508 z m 1.760616,0 h 0.568958 c 0.37938,0 0.635788,0.01976 0.769462,0.05943 0.134946,0.03967 0.244638,0.141584 0.328662,0.305407 0.0853,0.162102 0.12764,0.421279 0.12764,0.778247 0,0.325929 -0.02957,0.545233 -0.0894,0.657325 -0.05983,0.112092 -0.177779,0.17912 -0.353467,0.201538 0.159136,0.05346 0.266168,0.125301 0.320911,0.214974 0.05475,0.08967 0.08856,0.172169 0.101286,0.248046 0.01401,0.07415 0.02067,0.280568 0.02067,0.618567 v 1.104326 h -0.746207 v -1.391647 c 0,-0.224183 -0.01358,-0.363052 -0.04031,-0.416512 -0.02546,-0.05346 -0.09388,-0.0801 -0.204638,-0.0801 v 1.888257 h -0.803569 z m 2.106331,0 h 0.80977 c 0.218971,0 0.386721,0.0232 0.503845,0.06976 0.118397,0.04656 0.207055,0.114104 0.265617,0.202055 0.05983,0.08795 0.100035,0.194507 0.120406,0.320394 0.02164,0.124163 0.03204,0.317171 0.03204,0.579292 v 0.364836 c 0,0.267295 -0.02024,0.462538 -0.06098,0.584977 -0.04074,0.122439 -0.115825,0.216107 -0.225309,0.281637 -0.108213,0.06553 -0.250128,0.09819 -0.425814,0.09819 h -0.216007 v 1.686719 H 49.94514 Z m 3.557406,0.56379 c -0.0331,0 -0.06719,0.02234 -0.102836,0.06718 -0.03565,0.04311 -0.05374,0.161352 -0.05374,0.3545 v 0.783932 c 0,0.175897 0.01651,0.284174 0.04961,0.325561 0.03437,0.04139 0.06926,0.06253 0.104903,0.06253 0.05347,0 0.0926,-0.02629 0.116789,-0.07803 0.02546,-0.05346 0.03824,-0.15658 0.03824,-0.310058 v -0.758094 c 0,-0.184521 -0.01199,-0.305343 -0.03617,-0.362251 -0.02292,-0.05691 -0.06205,-0.08527 -0.116789,-0.08527 z m -4.860168,0.152445 v 0.931726 c 0.09039,0 0.153489,-0.01684 0.189135,-0.04961 0.03692,-0.03449 0.05529,-0.143622 0.05529,-0.328146 v -0.230477 c 0,-0.132784 -0.01758,-0.219578 -0.05323,-0.260966 -0.03437,-0.04139 -0.09827,-0.06253 -0.191202,-0.06253 z m 2.106331,5.17e-4 v 1.065568 c 0.02292,0.0017 0.04288,0.0026 0.05943,0.0026 0.07384,0 0.124954,-0.02406 0.152962,-0.07235 0.02928,-0.05001 0.04393,-0.152785 0.04393,-0.307992 v -0.344165 c 0,-0.143132 -0.01651,-0.23594 -0.04961,-0.279053 -0.0331,-0.04311 -0.102313,-0.0646 -0.206706,-0.0646 z m -4.055567,0.219625 c -0.08148,0.800161 -0.132592,1.385717 -0.152962,1.756482 h 0.274919 c -0.04074,-0.474234 -0.08122,-1.05979 -0.121957,-1.756482 z" /></g><g
         id="path1-4"
         transform="matrix(-1,0,0,1,-16.098313,15.327)"
         style="fill:#000000"><path
           style="color:#000000;-inkscape-stroke:none"
           d="m -65.456253,53.465624 a 5.6666665,5.6666665 0 0 1 -4.907477,-2.833333 5.6666665,5.6666665 0 0 1 0,-5.666666 5.6666665,5.6666665 0 0 1 4.907477,-2.833334"
           id="path5" /><path
           style="color:#000000;-inkscape-stroke:none"
           d="m -65.457031,42 c -2.071554,0 -3.985708,1.106372 -5.021485,2.900391 -1.035776,1.794018 -1.035776,4.004809 0,5.798828 1.035777,1.794018 2.949931,2.898437 5.021485,2.898437 v -0.263672 c -1.977452,0 -3.804243,-1.055054 -4.792969,-2.767578 -0.988726,-1.712523 -0.988726,-3.822633 0,-5.535156 0.988726,-1.712524 2.815517,-2.767578 4.792969,-2.767578 z"
           id="path6" /></g></g></g></svg>
